<svg width="362" height="362" viewBox="0 0 362 362" fill="none" xmlns="http://www.w3.org/2000/svg">
<circle cx="181" cy="181" r="181" fill="white"/>
<path d="M113.016 215H102.072L69.144 165.176V215H58.2V148.184H69.144L102.072 197.912V148.184H113.016V215ZM175.868 187.256C175.868 189.24 175.74 191.032 175.484 192.632H135.068C135.388 196.856 136.956 200.248 139.772 202.808C142.588 205.368 146.044 206.648 150.14 206.648C156.028 206.648 160.188 204.184 162.62 199.256H174.427C172.828 204.12 169.916 208.12 165.692 211.256C161.532 214.328 156.348 215.864 150.14 215.864C145.084 215.864 140.54 214.744 136.508 212.504C132.54 210.2 129.404 207 127.1 202.904C124.86 198.744 123.74 193.944 123.74 188.504C123.74 183.064 124.828 178.296 127.004 174.2C129.244 170.04 132.348 166.84 136.316 164.6C140.348 162.36 144.956 161.24 150.14 161.24C155.132 161.24 159.58 162.328 163.484 164.504C167.388 166.68 170.428 169.752 172.604 173.72C174.78 177.624 175.868 182.136 175.868 187.256ZM164.444 183.8C164.38 179.768 162.94 176.536 160.124 174.104C157.308 171.672 153.82 170.456 149.66 170.456C145.884 170.456 142.652 171.672 139.964 174.104C137.276 176.472 135.676 179.704 135.164 183.8H164.444ZM257.678 162.104L241.262 215H229.742L219.086 175.928L208.43 215H196.91L180.398 162.104H191.534L202.574 204.632L213.806 162.104H225.23L235.982 204.44L246.926 162.104H257.678ZM285.056 215.864C280.896 215.864 277.152 215.128 273.824 213.656C270.56 212.12 267.968 210.072 266.048 207.512C264.128 204.888 263.104 201.976 262.976 198.776H274.304C274.496 201.016 275.552 202.904 277.472 204.44C279.456 205.912 281.92 206.648 284.864 206.648C287.936 206.648 290.304 206.072 291.968 204.92C293.696 203.704 294.56 202.168 294.56 200.312C294.56 198.328 293.6 196.856 291.68 195.896C289.824 194.936 286.848 193.88 282.752 192.728C278.784 191.64 275.552 190.584 273.056 189.56C270.56 188.536 268.384 186.968 266.528 184.856C264.736 182.744 263.84 179.96 263.84 176.504C263.84 173.688 264.672 171.128 266.336 168.824C268 166.456 270.368 164.6 273.44 163.256C276.576 161.912 280.16 161.24 284.192 161.24C290.208 161.24 295.04 162.776 298.688 165.848C302.4 168.856 304.384 172.984 304.64 178.232H293.696C293.504 175.864 292.544 173.976 290.816 172.568C289.088 171.16 286.752 170.456 283.808 170.456C280.928 170.456 278.72 171 277.184 172.088C275.648 173.176 274.88 174.616 274.88 176.408C274.88 177.816 275.392 179 276.416 179.96C277.44 180.92 278.688 181.688 280.16 182.264C281.632 182.776 283.808 183.448 286.688 184.28C290.528 185.304 293.664 186.36 296.096 187.448C298.592 188.472 300.736 190.008 302.528 192.056C304.32 194.104 305.248 196.824 305.312 200.216C305.312 203.224 304.48 205.912 302.816 208.28C301.152 210.648 298.784 212.504 295.712 213.848C292.704 215.192 289.152 215.864 285.056 215.864Z" fill="black"/>
</svg>
